<?xml version="1.0" encoding="UTF-8" standalone="no" ?>
<!DOCTYPE svg PUBLIC "-//W3C//DTD SVG 1.1//EN" "http://www.w3.org/Graphics/SVG/1.1/DTD/svg11.dtd">
<svg xmlns="http://www.w3.org/2000/svg" xmlns:xlink="http://www.w3.org/1999/xlink" version="1.1" width="400" height="400" viewBox="0 0 400 400" xml:space="preserve">
<desc>Created with Fabric.js 3.6.2</desc>
<defs>
</defs>
<g transform="matrix(0.78 0 0 0.78 200 200)"  >
<rect style="stroke: none; stroke-width: 1; stroke-dasharray: none; stroke-linecap: butt; stroke-dashoffset: 0; stroke-linejoin: miter; stroke-miterlimit: 4; fill: none; fill-rule: nonzero; opacity: 1;"  x="-128" y="-128" rx="0" ry="0" width="256" height="256" />
</g>
<g transform="matrix(0.78 0 0 0.78 200.01 196.88)"  >
<path style="stroke: none; stroke-width: 1; stroke-dasharray: none; stroke-linecap: butt; stroke-dashoffset: 0; stroke-linejoin: miter; stroke-miterlimit: 4; fill: rgb(0,0,0); fill-rule: nonzero; opacity: 1;"  transform=" translate(-128.01, -124.01)" d="M 124.1 16.1 c -51.6 1.9 -93.7 43.6 -96 95.3 A 99.4 99.4 0 0 0 72 198.9 V 216 a 16 16 0 0 0 16 16 h 8 a 4 4 0 0 0 4 -4 V 204.3 a 8.2 8.2 0 0 1 7.5 -8.3 a 8 8 0 0 1 8.5 8 v 24 a 4 4 0 0 0 4 4 h 16 a 4 4 0 0 0 4 -4 V 204.3 a 8.2 8.2 0 0 1 7.5 -8.3 a 8 8 0 0 1 8.5 8 v 24 a 4 4 0 0 0 4 4 h 8 a 16 16 0 0 0 16 -16 V 198.9 A 100 100 0 0 0 124.1 16.1 Z M 92 152 a 20 20 0 1 1 20 -20 A 20.1 20.1 0 0 1 92 152 Z m 72 0 a 20 20 0 1 1 20 -20 A 20.1 20.1 0 0 1 164 152 Z" stroke-linecap="round" />
</g>
</svg>